<?xml version="1.0" encoding="UTF-8"?>
<svg version="1.1" xmlns="http://www.w3.org/2000/svg" width="1024" height="1024">
<path d="M0 0 C337.92 0 675.84 0 1024 0 C1024 337.92 1024 675.84 1024 1024 C686.08 1024 348.16 1024 0 1024 C0 686.08 0 348.16 0 0 Z " fill="#FEFEFE" transform="translate(0,0)"/>
<path d="M0 0 C-2.71818023 1.81212016 -5.0297322 2.88841602 -8.05078125 4.06640625 C-19.8549458 8.76036009 -30.75278309 13.42536804 -41 21 C-41.87140625 21.63292969 -42.7428125 22.26585937 -43.640625 22.91796875 C-68.32141142 41.73900871 -84.28455076 69.31581045 -89 100 C-90.46255933 111.29820878 -90.17609909 122.6322859 -90 134 C-89.98324219 135.17433594 -89.96648437 136.34867188 -89.94921875 137.55859375 C-88.59185197 164.89983888 -74.29140574 193.11595426 -55 212 C-32.94794969 231.89470688 -4.92943422 242.27974127 24.82421875 241.28125 C49.29047266 239.90770592 72.01405175 230.82436693 90.23046875 214.48046875 C93 212 93 212 95.53125 210.07421875 C98.53124426 207.55365395 100.91722974 204.7028004 103.3125 201.625 C103.78888916 201.01358154 104.26527832 200.40216309 104.75610352 199.7722168 C123.40373286 175.30404867 127.84938889 146.00673108 124.25 115.9375 C122.91669758 108.53767156 120.93736196 101.26510736 119 94 C143.09 94 167.18 94 192 94 C190.48491209 97.78771979 189.27429992 100.19014999 187.0625 103.4375 C178.93098468 117.12678816 180.44903186 134.01019475 180.3125 149.375 C180.28087761 151.92888228 180.24855803 154.48275601 180.21557617 157.03662109 C180.12744826 164.35576784 180.06728945 171.67488841 180.01489258 178.99435425 C179.99031589 182.3041994 179.96145039 185.61400919 179.93359375 188.92382812 C179.88290879 195.28165278 179.84784094 201.63938824 179.82577515 207.99737549 C179.81702686 210.38797162 179.80555683 212.77855958 179.79116821 215.16912842 C179.28560578 247.4844137 179.28560578 247.4844137 194.7734375 274.8671875 C204.61113414 284.22303777 217.18186562 287.40695179 230.4375 287.3125 C231.27152344 287.30686035 232.10554688 287.3012207 232.96484375 287.29541016 C244.78999545 287.06214056 255.65153697 282.96985881 264.6875 275.125 C280.62083656 257.73621442 281.1937826 232.66833738 281.04459953 210.55448723 C281.02685972 207.82795033 281.01679853 205.10147489 281.00868225 202.37489319 C280.98455742 194.63032219 280.9493612 186.88583312 280.90405273 179.14135742 C280.32128811 75.78266645 280.32128811 75.78266645 308 38 C308.60328125 37.15308594 309.2065625 36.30617188 309.828125 35.43359375 C319.70454917 22.28510222 333.91017237 12.61562474 350.23046875 9.5859375 C361.83407317 8.3352496 372.73212891 8.85882878 384 12 C384.66 12.66 385.32 13.32 386 14 C384.20369141 14.12955078 384.20369141 14.12955078 382.37109375 14.26171875 C361.14165636 16.00381234 343.28985816 22.53539328 329.1015625 39.234375 C306.49459152 69.71798293 300.92515741 112.2054332 299.46484375 148.96484375 C299.42310532 149.9913353 299.38136688 151.01782684 299.33836365 152.07542419 C298.81610955 165.73904884 298.67576706 179.41278672 298.52319336 193.0847168 C297.72494413 261.90144786 297.72494413 261.90144786 273 288 C253.95472792 304.95936133 228.91099979 310.31481243 204 309 C180.5493304 307.45521664 162.03397537 300.09917274 145.94140625 282.78515625 C126.88552539 259.9944925 127.71412018 229.04047086 126 201 C125.41557129 201.79591553 124.83114258 202.59183105 124.22900391 203.41186523 C102.24782056 233.08352832 68.61115037 252.80817507 32.07421875 258.625 C16.31320766 260.8389275 0.69191167 260.71951457 -15 258 C-16.12245117 257.82259277 -16.12245117 257.82259277 -17.26757812 257.64160156 C-49.4303869 252.50757075 -82.03085237 235.49892916 -102.02734375 209.16015625 C-115.01978306 191.17702603 -125.50390491 170.35473393 -128 148 C-128.10828125 147.16339844 -128.2165625 146.32679688 -128.328125 145.46484375 C-132.10073823 111.75952295 -124.42613191 77.10676569 -103.4921875 50.05126953 C-96.00657489 40.79534716 -88.02135568 32.17053619 -78.4375 25.0625 C-77.74277588 24.54671387 -77.04805176 24.03092773 -76.33227539 23.49951172 C-53.07462925 6.51891498 -28.55655052 -0.53767564 0 0 Z " fill="#E2A127" transform="translate(424,288)"/>
<path d="M0 0 C6.20567257 1.86336752 12.03629059 1.82190531 18.50097656 1.85083008 C19.62246094 1.87145508 20.74394531 1.89208008 21.89941406 1.91333008 C31.62800984 1.95826586 40.97892892 0.63063702 49.68847656 -3.96166992 C50.49671875 -4.37545898 51.30496094 -4.78924805 52.13769531 -5.21557617 C54.15102195 -6.26993248 54.15102195 -6.26993248 55.00097656 -8.39916992 C55.66097656 -8.39916992 56.32097656 -8.39916992 57.00097656 -8.39916992 C54.59316801 8.3705625 51.69063849 25.01337909 48.57788086 41.66381836 C46.69546033 51.74596714 44.92820461 61.83795261 43.28710938 71.96264648 C42.09605956 79.23383471 40.66891181 86.42365418 39.00097656 93.60083008 C38.34097656 93.60083008 37.68097656 93.60083008 37.00097656 93.60083008 C36.76761597 92.52152222 36.76761597 92.52152222 36.52954102 91.42041016 C29.913837 61.0901385 19.53789949 31.57485337 -7.93652344 13.78833008 C-23.50013637 4.13045033 -42.08493667 -2.31322859 -60.55761719 1.29614258 C-74.40450408 4.84356893 -84.18783006 11.63657796 -91.99902344 23.60083008 C-99.60992673 37.78140559 -100.79917179 56.54312521 -96.37402344 71.97583008 C-89.3984125 90.24758607 -75.33836793 101.48493166 -59.99902344 112.60083008 C-59.26200195 113.13853027 -58.52498047 113.67623047 -57.765625 114.23022461 C-53.28864513 117.49522067 -48.79224522 120.73225636 -44.28710938 123.95825195 C-41.95952431 125.62918583 -39.63848743 127.30883871 -37.31933594 128.99145508 C-29.7719943 134.46638717 -22.2001458 139.88972765 -14.51855469 145.17504883 C-1.95997849 153.81620343 10.47984715 162.62006235 22.81738281 171.57348633 C26.0536077 173.92084194 29.30667918 176.24276343 32.56982422 178.55249023 C42.49022633 185.58372455 52.11857947 192.89974063 61.37597656 200.78833008 C62.21418945 201.50061768 62.21418945 201.50061768 63.06933594 202.22729492 C70.07990555 208.27297342 76.06916852 214.6093986 81.43847656 222.16333008 C82.00123291 222.95199463 82.56398926 223.74065918 83.14379883 224.55322266 C92.65843537 238.06108401 106.00097656 258.45388457 106.00097656 275.60083008 C78.94097656 275.60083008 51.88097656 275.60083008 24.00097656 275.60083008 C21.03097656 270.32083008 18.06097656 265.04083008 15.00097656 259.60083008 C12.3899753 256.09229714 9.87586125 252.85283842 7.00097656 249.60083008 C6.19917969 248.67915039 5.39738281 247.7574707 4.57128906 246.80786133 C0.76833457 242.11264487 0.76833457 242.11264487 -3.99902344 238.60083008 C-3.99902344 237.94083008 -3.99902344 237.28083008 -3.99902344 236.60083008 C-4.53422607 236.37024902 -5.06942871 236.13966797 -5.62084961 235.90209961 C-8.71958958 234.20655664 -11.32647137 232.00720693 -14.04980469 229.78051758 C-22.70790876 222.84794666 -31.92425882 216.81186966 -41.18652344 210.72583008 C-44.49408709 208.54331239 -47.79954829 206.35762485 -51.10449219 204.17114258 C-51.91759857 203.63360352 -52.73070496 203.09606445 -53.56845093 202.54223633 C-59.477428 198.62852011 -65.35322472 194.66831862 -71.20605469 190.67114258 C-72.34363472 189.89578659 -72.34363472 189.89578659 -73.50419617 189.10476685 C-84.33638656 181.68071851 -94.78824682 173.76634927 -104.86230469 165.34301758 C-107.08243767 163.47597058 -107.08243767 163.47597058 -109.99902344 161.60083008 C-109.99902344 160.94083008 -109.99902344 160.28083008 -109.99902344 159.60083008 C-110.58554687 159.33786133 -111.17207031 159.07489258 -111.77636719 158.80395508 C-127.49872506 150.29343447 -139.42096841 127.11833052 -144.99121094 111.14770508 C-150.1715353 92.91617593 -149.7668505 74.29117805 -142.99902344 56.60083008 C-142.63808594 55.56313477 -142.27714844 54.52543945 -141.90527344 53.45629883 C-132.78110939 29.1143326 -113.83659763 10.36012599 -90.99902344 -1.39916992 C-61.36089079 -14.8195828 -29.96797094 -9.36584578 0 0 Z " fill="#E3A227" transform="translate(514.9990234375,94.399169921875)"/>
<path d="M0 0 C2.36008817 3.54013225 2.23463644 5.01121955 2.1953125 9.19921875 C2.18886719 10.40771484 2.18242187 11.61621094 2.17578125 12.86132812 C2.15902344 14.12396484 2.14226562 15.38660156 2.125 16.6875 C2.11597656 17.96173828 2.10695313 19.23597656 2.09765625 20.54882812 C2.07405641 23.69940627 2.04113194 26.84960983 2 30 C2.97219482 29.9690625 3.94438965 29.938125 4.94604492 29.90625 C14.33502002 29.64954894 23.20481114 30.21647278 31 36 C32.44207941 38.88415883 32.09394887 41.41721528 32.0625 44.625 C32.05347656 45.81351562 32.04445313 47.00203125 32.03515625 48.2265625 C32.02355469 49.14179688 32.01195312 50.05703125 32 51 C32.64066406 51.07476562 33.28132813 51.14953125 33.94140625 51.2265625 C40.49576827 52.22290367 44.70345075 53.85948572 49 59 C54.38232443 66.74424872 56.37887074 74.69128441 56.25 84.0625 C56.23876099 85.16223145 56.23876099 85.16223145 56.22729492 86.28417969 C55.91146618 102.66492826 53.29593868 117.55087965 42 130 C41.195625 130.886875 40.39125 131.77375 39.5625 132.6875 C26.43195235 144.53701861 11.92806771 149.93714027 -5.74609375 149.3515625 C-12.14560302 148.94933243 -18.01824214 147.2496773 -24 145 C-25.32064453 144.50886719 -25.32064453 144.50886719 -26.66796875 144.0078125 C-39.64304653 138.35571185 -48.91509231 126.92144578 -54.8125 114.375 C-57.4268782 106.94466196 -58.29060939 100.00290161 -58.1953125 92.15234375 C-58.1924826 91.25504044 -58.18965271 90.35773712 -58.18673706 89.4332428 C-58.17564979 86.60118586 -58.15056747 83.76945939 -58.125 80.9375 C-58.11495537 79.00325981 -58.10583213 77.06901461 -58.09765625 75.13476562 C-58.07574814 70.4230521 -58.04129901 65.71158184 -58 61 C-53.16548015 59.4357095 -49.19807954 58.76911176 -44.0625 58.875 C-42.34740234 58.90207031 -42.34740234 58.90207031 -40.59765625 58.9296875 C-39.74042969 58.95289063 -38.88320313 58.97609375 -38 59 C-38.02094727 57.8447583 -38.04189453 56.6895166 -38.06347656 55.49926758 C-38.13600398 51.20365852 -38.18184593 46.90810335 -38.21972656 42.61206055 C-38.23981305 40.75454602 -38.26708778 38.89709449 -38.30175781 37.03979492 C-38.35040737 34.36621537 -38.37299809 31.69347344 -38.390625 29.01953125 C-38.41127014 28.19226028 -38.43191528 27.36498932 -38.45318604 26.51264954 C-38.45469519 22.61427365 -38.30184827 20.50715449 -36.26953125 17.0925293 C-33.99408934 14.99455032 -32.11204836 13.75767617 -29.296875 12.5 C-27.94916016 11.88125 -27.94916016 11.88125 -26.57421875 11.25 C-25.17623047 10.63125 -25.17623047 10.63125 -23.75 10 C-17.78521175 7.31542582 -12.08523739 4.63320576 -6.65283203 0.96679688 C-4.30635846 -0.40573419 -2.6353927 -0.6200924 0 0 Z " fill="#E29F24" transform="translate(446,332)"/>
<path d="M0 0 C0.88171875 -0.01611328 1.7634375 -0.03222656 2.671875 -0.04882812 C15.89970008 -0.05852594 26.48727712 5.16642251 36 14.25 C46.01685944 24.96190683 50.02161151 38.80868245 49.84375 53.37109375 C48.56018225 70.63049582 42.65619794 83.90493028 29.625 95.3125 C17.4885833 104.18479018 2.08250009 104.59033171 -12.375 103.3125 C-25.27209896 100.88141745 -36.67121421 93.44315466 -44.0625 82.625 C-52.14935337 68.8800182 -53.19695877 51.82351924 -50.24609375 36.41796875 C-46.83259067 24.24875374 -39.99871842 13.62372116 -28.90234375 7.21484375 C-19.28662084 2.06672181 -10.79718887 -0.03912025 0 0 Z " fill="#02657F" transform="translate(226.375,686.6875)"/>
<path d="M0 0 C11.26564507 -0.59390551 23.82430144 3.21860168 32.62109375 10.25 C43.72104515 20.54818926 49.1621575 32.73230447 49.90625 47.84765625 C50.37738989 64.54881069 47.46720566 79.75678871 35.73046875 92.40234375 C26.30188138 100.66108788 15.20999289 104.83531542 2.80859375 104.625 C1.49483765 104.6086853 1.49483765 104.6086853 0.15454102 104.59204102 C-12.67508659 104.27796699 -22.69025202 101.11064531 -32.41015625 92.4375 C-37.42998685 87.15346779 -40.54908691 80.91293827 -43.37890625 74.25 C-43.72179687 73.44433594 -44.0646875 72.63867188 -44.41796875 71.80859375 C-49.15824097 58.00864239 -47.99075086 39.30638338 -41.97265625 26.18359375 C-35.52248377 14.02866967 -26.2612306 6.83971701 -13.37890625 2.25 C-8.93284122 1.019605 -4.57394683 0.4806775 0 0 Z " fill="#01647F" transform="translate(540.37890625,685.75)"/>
<path d="M0 0 C10.61668595 8.78058102 16.28441795 20.35703799 18 34 C19.15686576 52.42117248 17.04746002 67.4067769 4.5625 81.8125 C3.2940625 82.8953125 3.2940625 82.8953125 2 84 C1.19369141 84.71736328 1.19369141 84.71736328 0.37109375 85.44921875 C-11.0395593 94.90648234 -23.30226557 96.19015312 -37.58105469 95.23486328 C-48.81790453 94.14384092 -58.09674209 89.24166123 -65.83984375 81.0546875 C-77.5538927 66.33015778 -79.54372133 49.07510578 -77.68359375 30.91015625 C-77.26653508 28.53179466 -76.71730298 26.30443888 -76 24 C-75.75507812 23.18660156 -75.51015625 22.37320313 -75.2578125 21.53515625 C-70.98347229 9.2606129 -62.10746435 0.82165992 -50.625 -4.75 C-34.07849275 -11.84788104 -14.90123001 -10.44500775 0 0 Z " fill="#01647F" transform="translate(938,695)"/>
<path d="M0 0 C11.92644782 8.65087412 18.8575132 20.25022663 21.3125 34.6875 C23.24150075 50.71037113 20.85487832 66.86725719 11 80 C3.78084736 88.81758571 -5.4454561 95.45607388 -17 97 C-33.21749524 97.93602313 -45.60410566 96.42563882 -59.0625 86.8125 C-59.701875 86.214375 -60.34125 85.61625 -61 85 C-61 84.34 -61 83.68 -61 83 C-61.66 83 -62.32 83 -63 83 C-65.30013994 79.8520942 -67.11673698 76.40918895 -69 73 C-69.39960937 72.31679688 -69.79921875 71.63359375 -70.2109375 70.9296875 C-76.82412813 58.25026185 -76.34878681 39.27834989 -72.875 25.75 C-68.82700611 14.18986361 -61.95931237 4.5533244 -51.0625 -1.3125 C-34.09927832 -8.9798762 -16.49684099 -8.94485705 0 0 Z " fill="#02647F" transform="translate(827,693)"/>
<path d="M0 0 C55.79014989 0 55.79014989 0 64.87890625 8.82421875 C71.14703958 16.51212204 71.96030955 25.38474866 71 35 C69.30613284 42.61733075 66.06363987 48.97854823 60 54 C53.63803113 57.69681975 47.80633436 59.13093788 40.484375 59.09765625 C38.60878906 59.09282227 38.60878906 59.09282227 36.6953125 59.08789062 C34.74238281 59.07532227 34.74238281 59.07532227 32.75 59.0625 C30.77386719 59.05573242 30.77386719 59.05573242 28.7578125 59.04882812 C25.50516259 59.03704316 22.25260416 59.02059011 19 59 C19.03029297 59.73935791 19.06058594 60.47871582 19.09179688 61.24047852 C19.62817315 74.500319 20.1427049 87.72844457 20 101 C13.4 101 6.8 101 0 101 C0 67.67 0 34.34 0 0 Z " fill="#01647F" transform="translate(604,688)"/>
<path d="M0 0 C0.74886475 0.00523682 1.49772949 0.01047363 2.26928711 0.01586914 C3.07817383 0.0190918 3.88706055 0.02231445 4.72045898 0.02563477 C5.5705957 0.03401367 6.42073242 0.04239258 7.29663086 0.05102539 C8.15063477 0.05553711 9.00463867 0.06004883 9.88452148 0.06469727 C12.00108749 0.07652166 14.11761771 0.0944577 16.23413086 0.11352539 C45.21331057 69.41786364 45.21331057 69.41786364 52.73413086 89.42602539 C53.10199707 90.40410156 53.46986328 91.38217773 53.84887695 92.38989258 C56.23413086 98.84494879 56.23413086 98.84494879 56.23413086 101.11352539 C48.97413086 101.11352539 41.71413086 101.11352539 34.23413086 101.11352539 C33.88350586 99.56665039 33.53288086 98.01977539 33.17163086 96.42602539 C31.74388923 90.7448035 30.02615635 85.20043683 28.17163086 79.64477539 C27.8687767 78.73742142 27.56592255 77.83006744 27.25389099 76.8952179 C23.54956413 65.92528904 19.42592868 55.11635558 15.29663086 44.30102539 C14.50913196 42.22890776 13.72202085 40.15664271 12.93530273 38.08422852 C11.03935419 33.0922953 9.13872241 28.10216698 7.23413086 23.11352539 C6.8661438 24.19561279 6.8661438 24.19561279 6.49072266 25.29956055 C5.30459388 28.78044181 4.11428149 32.25987468 2.92163086 35.73852539 C2.70092926 36.38278473 2.48022766 37.02704407 2.25283813 37.69082642 C-0.99044235 47.14278475 -4.37605193 56.53205802 -7.86758423 65.89486694 C-8.21942276 66.83841537 -8.21942276 66.83841537 -8.57836914 67.80102539 C-8.8123642 68.42852692 -9.04635925 69.05602844 -9.28744507 69.70254517 C-12.64868635 78.74563705 -15.59589053 87.78144979 -17.96118164 97.13305664 C-18.76586914 100.11352539 -18.76586914 100.11352539 -19.76586914 101.11352539 C-22.54849857 101.24068061 -25.29527644 101.29873854 -28.07836914 101.30102539 C-29.23755859 101.31939453 -29.23755859 101.31939453 -30.42016602 101.33813477 C-31.16975586 101.34006836 -31.9193457 101.34200195 -32.69165039 101.34399414 C-33.37654541 101.34810303 -34.06144043 101.35221191 -34.76708984 101.35644531 C-37.10374007 101.07246254 -38.72862796 100.263944 -40.76586914 99.11352539 C-40.50596191 98.45384766 -40.24605469 97.79416992 -39.97827148 97.11450195 C-34.25548388 82.58303693 -28.5560542 68.04254721 -22.89086914 53.48852539 C-22.60077972 52.74351776 -22.31069031 51.99851013 -22.0118103 51.23092651 C-18.65177529 42.59743055 -15.31605599 33.95517107 -12.01977539 25.29711914 C-11.71783264 24.50452698 -11.41588989 23.71193481 -11.10479736 22.89532471 C-9.65393777 19.08530543 -8.20650953 15.2740348 -6.7644043 11.46069336 C-6.2480353 10.1014546 -5.73160027 8.74224092 -5.21508789 7.38305664 C-4.76480225 6.19301025 -4.3145166 5.00296387 -3.85058594 3.77685547 C-2.37452748 0.15265523 -2.37452748 0.15265523 0 0 Z " fill="#02657F" transform="translate(397.765869140625,687.886474609375)"/>
<path d="M0 0 C0.91990723 0.00612305 1.83981445 0.01224609 2.78759766 0.01855469 C12.9192165 0.25064463 21.16515451 3.01418924 29.6875 8.4375 C29.14410208 13.00204251 27.89286179 16.4103176 25.6875 20.4375 C25.06875 20.169375 24.45 19.90125 23.8125 19.625 C11.48288626 14.93974678 -0.27955316 12.51289218 -12.87890625 17.44140625 C-22.64270623 21.85039491 -26.37090237 27.71725469 -30.33203125 37.47265625 C-34.22665442 49.24962431 -32.85280885 61.08672788 -28.3125 72.4375 C-24.89484281 79.15075519 -19.08649637 83.53909593 -12.125 86.25 C-1.42230309 89.58362691 8.54222452 89.64319053 18.6875 84.4375 C20.58742567 82.89216875 22.05337753 81.27588778 23.6875 79.4375 C24.6775 79.4375 25.6675 79.4375 26.6875 79.4375 C27.38883599 81.01475347 28.073083 82.59961333 28.75 84.1875 C29.13285156 85.06921875 29.51570313 85.9509375 29.91015625 86.859375 C30.74894097 89.64127406 30.79378256 90.7880951 29.6875 93.4375 C23.25164922 100.40967168 14.46062348 103.32809348 5.18359375 103.890625 C-9.74966295 104.353948 -22.24488426 102.93069105 -34.3125 93.4375 C-34.99957031 92.93605469 -35.68664062 92.43460938 -36.39453125 91.91796875 C-45.36109591 84.8715862 -50.06421625 74.8023741 -51.9375 63.75 C-53.59559938 48.13371859 -51.52241282 32.71608336 -42.1875 19.6875 C-31.82762292 7.2511334 -16.05012847 -0.18248817 0 0 Z " fill="#02647F" transform="translate(134.3125,686.5625)"/>
<path d="M0 0 C6.93 0 13.86 0 21 0 C21.95519531 1.72863281 22.91039062 3.45726562 23.89453125 5.23828125 C31.46026018 18.90682875 39.10214047 32.51945389 47 46 C47.39155273 45.31711914 47.78310547 44.63423828 48.18652344 43.93066406 C48.73856445 42.96870117 49.29060547 42.00673828 49.859375 41.015625 C50.47393555 39.9436084 51.08849609 38.8715918 51.72167969 37.76708984 C53.07933838 35.40555892 54.45075609 33.05278175 55.83300781 30.70556641 C59.09213904 25.15527557 62.23568977 19.64021358 65 13.8203125 C71.36051667 0.92882809 71.36051667 0.92882809 76.3671875 -0.83300781 C82.05320522 -1.6931674 87.38328255 -1.05754094 93 0 C91.51899695 5.28693268 89.08211638 9.4634291 86.1875 14.0625 C85.70611572 14.83907959 85.22473145 15.61565918 84.72875977 16.41577148 C83.15819067 18.94743135 81.57934624 21.47380806 80 24 C78.91076814 25.7495705 77.82223211 27.49957438 76.734375 29.25 C76.19047119 30.12309814 75.64656738 30.99619629 75.08618164 31.89575195 C73.97855471 33.68734221 72.88151008 35.48551432 71.79467773 37.28979492 C69.37297778 41.2954313 66.9798131 45.13244342 63.98828125 48.73828125 C52.72217073 63.1783021 55.70942039 83.64214171 56 101 C49.73 101 43.46 101 37 101 C37.17402344 98.3909375 37.34804688 95.781875 37.52734375 93.09375 C38.65669771 71.4371517 38.0990478 56.96623278 23.99658203 39.54052734 C20.8789811 35.57357268 18.30996679 31.3028655 15.6875 27 C14.73077264 25.4786361 13.77119949 23.95905757 12.80859375 22.44140625 C12.34694824 21.71066895 11.88530273 20.97993164 11.40966797 20.22705078 C9.95507536 17.92902623 8.49510809 15.63446638 7.03515625 13.33984375 C6.10659665 11.87250605 5.17820361 10.40506292 4.25 8.9375 C3.81905029 8.26396484 3.38810059 7.59042969 2.9440918 6.89648438 C0 2.22692423 0 2.22692423 0 0 Z " fill="#026580" transform="translate(278,688)"/>
<path d="M0 0 C9.02728265 3.38523099 9.02728265 3.38523099 10.9375 6.4375 C11.31777344 7.01371094 11.69804687 7.58992188 12.08984375 8.18359375 C17.28707015 18.55574086 15.09683512 38.30184232 12 49 C6.65474665 61.876425 -2.19029202 70.8012923 -15.01171875 76.2890625 C-28.17093986 81.17325939 -39.79958216 81.39787787 -53 76 C-66.24907651 69.74613175 -74.28493538 59.55685512 -79.421875 46.1171875 C-80.87456594 40.7971977 -81.12204155 35.45934768 -81.09765625 29.97265625 C-81.09443359 28.68681641 -81.09121094 27.40097656 -81.08789062 26.07617188 C-81.07953802 24.73828055 -81.07107311 23.40038993 -81.0625 22.0625 C-81.05747659 20.69726726 -81.05291517 19.33203274 -81.04882812 17.96679688 C-81.03708851 14.64448543 -81.02066679 11.32226592 -81 8 C-77.37 8 -73.74 8 -70 8 C-70 22.19 -70 36.38 -70 51 C-46.9 51 -23.8 51 0 51 C0 34.17 0 17.34 0 0 Z " fill="#FEFDFB" transform="translate(478,392)"/>
<path d="M0 0 C21.12 0 42.24 0 64 0 C64 4.95 64 9.9 64 15 C55.2607036 15.17926762 46.80504998 14.47915198 38.125 13.5 C35.56535825 13.21644687 33.00547029 12.93510536 30.4453125 12.65625 C28.76719482 12.46772461 28.76719482 12.46772461 27.05517578 12.27539062 C24.34391304 12.03099999 21.71881758 11.97973365 19 12 C19.1094134 19.7651978 19.22235392 27.53033652 19.33933926 35.29542351 C19.39360767 38.90428477 19.44682989 42.51315398 19.49731445 46.12207031 C19.75428763 64.42802582 20.19529282 82.70796905 21 101 C14.07 101 7.14 101 0 101 C0.16242187 97.98101563 0.32484375 94.96203125 0.4921875 91.8515625 C1.04649763 80.68848802 1.15518527 69.54975589 1.125 58.375 C1.12411377 57.41840485 1.12322754 56.46180969 1.12231445 55.47622681 C1.10237129 36.96647943 0.62977716 18.49970404 0 0 Z " fill="#016480" transform="translate(686,688)"/>
<path d="M0 0 C3.3 0 6.6 0 10 0 C7.79816144 20.38598803 -2.35505717 38.52290464 -18.125 51.625 C-28.4933141 59.2524728 -39.49159766 64.1395514 -52 67 C-52.78117187 67.19207031 -53.56234375 67.38414062 -54.3671875 67.58203125 C-65.57046078 69.36059244 -77.21950529 68.32696062 -88 65 C-89.41345703 64.56494141 -89.41345703 64.56494141 -90.85546875 64.12109375 C-110.27666852 57.57431414 -126.01643466 44.47011799 -135.375 26.1875 C-139.03782187 18.72920417 -141.23007216 11.10440644 -143 3 C-139.7 2.67 -136.4 2.34 -133 2 C-132.56300781 3.54107422 -132.56300781 3.54107422 -132.1171875 5.11328125 C-126.41426516 24.63982263 -117.03495386 39.69359606 -98.76171875 49.7890625 C-95.55014555 51.35061785 -92.33396797 52.72211547 -89 54 C-88.11570312 54.3403125 -87.23140625 54.680625 -86.3203125 55.03125 C-72.30880386 59.4174614 -54.4413041 58.93488118 -41 53 C-39.99066406 52.57589844 -38.98132813 52.15179688 -37.94140625 51.71484375 C-22.0352434 44.44056036 -11.16402637 32.27148828 -4.21875 16.3359375 C-2.27089286 11.00430289 -1.03973448 5.572612 0 0 Z " fill="#E29F24" transform="translate(510,431)"/>
<path d="M0 0 C1.06205658 -0.00095673 2.12411316 -0.00191345 3.21835327 -0.00289917 C5.45221008 -0.00357664 7.6860689 -0.00175271 9.91992188 0.00244141 C13.33207624 0.00780643 16.74409963 0.00247619 20.15625 -0.00390625 C22.33333362 -0.0032456 24.51041716 -0.00196471 26.6875 0 C27.70325104 -0.00202423 28.71900208 -0.00404846 29.76553345 -0.00613403 C34.52697558 0.00958626 39.02966281 0.13681765 43.7109375 1.1328125 C41.79159824 11.77143584 38.28511673 20.18922839 29.2734375 26.6328125 C21.55743587 31.26241348 13.31088754 32.29420804 4.5859375 30.3203125 C-3.40924677 28.06046509 -9.25449705 23.75743235 -14.5390625 17.4453125 C-17.10624368 12.58600526 -19.2890625 6.70453166 -19.2890625 1.1328125 C-12.82564718 0.16813794 -6.52933075 -0.01306399 0 0 Z " fill="#FCFDFD" transform="translate(213.2890625,744.8671875)"/>
<path d="M0 0 C9.23982415 6.17205645 11.68342117 16.0011765 13.9765625 26.3203125 C-6.8134375 26.3203125 -27.6034375 26.3203125 -49.0234375 26.3203125 C-47.76466662 16.25014547 -45.29961091 9.14839618 -37.15625 2.79296875 C-36.45242187 2.30699219 -35.74859375 1.82101562 -35.0234375 1.3203125 C-34.40210938 0.88589844 -33.78078125 0.45148437 -33.140625 0.00390625 C-24.06584977 -5.10287903 -9.1906126 -4.51634915 0 0 Z " fill="#FCFDFD" transform="translate(243.0234375,704.6796875)"/>
<path d="M0 0 C2.69463972 2.40137451 4.32678251 4.66886322 6.1640625 7.76953125 C7.03611328 9.19458984 7.03611328 9.19458984 7.92578125 10.6484375 C9.4765625 14.20703125 9.4765625 14.20703125 11.4765625 25.20703125 C-8.3234375 25.20703125 -28.1234375 25.20703125 -48.5234375 25.20703125 C-46.9347061 14.08591146 -43.55482405 5.99323524 -34.5859375 -1.16796875 C-23.71343796 -8.70295902 -10.45201461 -7.42643144 0 0 Z " fill="#FCFDFD" transform="translate(560.5234375,705.79296875)"/>
<path d="M0 0 C1.14656301 0.71660188 2.27513754 1.46359834 3.375 2.25 C4.24125 2.78625 5.1075 3.3225 6 3.875 C12.44190671 10.31690671 17.375 19.96939285 17.375 29.25 C-2.095 29.25 -21.565 29.25 -41.625 29.25 C-41.625 19.48858316 -39.1248744 13.04153355 -32.421875 5.9375 C-23.99359153 -1.97775752 -10.79367851 -5.24205419 0 0 Z " fill="#FCFDFD" transform="translate(920.625,701.75)"/>
<path d="M0 0 C1.17036187 0.73305603 2.31902646 1.5024784 3.4375 2.3125 C4.984375 3.3334375 4.984375 3.3334375 6.5625 4.375 C14.05066078 11.06524201 15.70145214 19.76423675 17.4375 29.3125 C-2.0325 29.3125 -21.5025 29.3125 -41.5625 29.3125 C-41.5625 19.65216346 -38.28568136 12.33055774 -31.5625 5.3125 C-22.77264339 -1.61101719 -10.71670221 -5.17070457 0 0 Z " fill="#FCFDFD" transform="translate(812.5625,701.6875)"/>
<path d="M0 0 C1.64560158 0.00212242 1.64560158 0.00212242 3.32444763 0.00428772 C6.79835844 0.00984613 10.27220271 0.02239079 13.74609375 0.03515625 C16.11393136 0.04017663 18.48176998 0.04473859 20.84960938 0.04882812 C26.62762653 0.0598019 32.40560539 0.07649814 38.18359375 0.09765625 C36.60731491 11.57682308 32.82178292 19.15867969 24.18359375 27.09765625 C16.59020804 32.25741449 7.67673265 32.14832597 -1.23046875 30.70703125 C-8.83878817 28.34269294 -14.07100265 21.95447842 -17.75390625 15.16015625 C-19.93307755 10.44349355 -20.56634907 6.26550474 -20.81640625 1.09765625 C-13.83844457 0.1814223 -7.03297686 -0.03466186 0 0 Z " fill="#FBFDFD" transform="translate(533.81640625,744.90234375)"/>
<path d="M0 0 C1.12067871 0.00141495 2.24135742 0.0028299 3.39599609 0.00428772 C6.95152533 0.00985486 10.50699002 0.02240127 14.0625 0.03515625 C16.483072 0.0401755 18.903645 0.04473766 21.32421875 0.04882812 C27.23700094 0.05981353 33.14974585 0.07651873 39.0625 0.09765625 C37.61071239 11.34776582 32.2914409 21.35366709 23.33203125 28.47265625 C16.50902029 32.66247961 8.07253169 31.86670731 0.44140625 30.6953125 C-6.79327868 28.77692984 -11.52556322 23.82029813 -15.51171875 17.66796875 C-18.52269151 12.12915926 -19.63380311 7.37405871 -19.9375 1.09765625 C-13.25993721 0.08409761 -6.74697118 -0.03241547 0 0 Z " fill="#FBFDFD" transform="translate(898.9375,744.90234375)"/>
<path d="M0 0 C1.5747686 0.00212242 1.5747686 0.00212242 3.18135071 0.00428772 C6.49202482 0.00982745 9.80262803 0.02236822 13.11328125 0.03515625 C15.37565006 0.04017906 17.63801994 0.04474059 19.90039062 0.04882812 C25.40887783 0.05977704 30.91732447 0.07645379 36.42578125 0.09765625 C36.12162597 1.69966703 35.81297946 3.30082555 35.50244141 4.90161133 C35.24534897 6.23921257 35.24534897 6.23921257 34.98306274 7.60383606 C33.0622129 16.19958914 27.63482531 23.22094998 20.42578125 28.09765625 C15.79514216 30.88522227 11.87770625 31.61642083 6.55078125 31.53515625 C5.84115234 31.52540771 5.13152344 31.51565918 4.40039062 31.50561523 C-4.01884973 31.22000393 -8.10301355 28.88192519 -13.82421875 22.91015625 C-19.42312558 16.20026791 -21.94405958 9.76234488 -22.57421875 1.09765625 C-15.02546164 0.28470254 -7.5895075 -0.0394411 0 0 Z " fill="#FBFDFD" transform="translate(793.57421875,744.90234375)"/>
<path d="M0 0 C11.29927007 0 11.29927007 0 15.5625 0.9375 C16.38878906 1.11152344 17.21507812 1.28554688 18.06640625 1.46484375 C20 2 20 2 21 3 C21.09386381 4.8718094 21.11743804 6.7471806 21.11352539 8.62133789 C21.11344986 9.82250748 21.11337433 11.02367706 21.11329651 12.26124573 C21.10813522 13.5685112 21.10297394 14.87577667 21.09765625 16.22265625 C21.09579198 17.56644132 21.09436812 18.91022707 21.09336853 20.25401306 C21.08954402 23.79682277 21.07971432 27.3395917 21.06866455 30.88238525 C21.05844899 34.49515227 21.0538706 38.10792584 21.04882812 41.72070312 C21.03809198 48.81382039 21.02049572 55.90690325 21 63 C14.07 63 7.14 63 0 63 C0 42.21 0 21.42 0 0 Z " fill="#FEFDFC" transform="translate(448,371)"/>
<path d="M0 0 C0 29.37 0 58.74 0 89 C-1.98 89 -3.96 89 -6 89 C-6 75.14 -6 61.28 -6 47 C-11.28 46.67 -16.56 46.34 -22 46 C-22 34.12 -22 22.24 -22 10 C-18.74125 8.35 -15.4825 6.7 -12.125 5 C-11.09906738 4.47792969 -10.07313477 3.95585937 -9.01611328 3.41796875 C-7.80544189 2.80888672 -7.80544189 2.80888672 -6.5703125 2.1875 C-5.74289551 1.76855469 -4.91547852 1.34960938 -4.06298828 0.91796875 C-2 0 -2 0 0 0 Z " fill="#FEFDF9" transform="translate(439,345)"/>
<path d="M0 0 C3.3 -0.0825 6.6 -0.165 10 -0.25 C11.02351562 -0.28641602 12.04703125 -0.32283203 13.1015625 -0.36035156 C20.19692077 -0.44547389 25.68078135 0.77067686 30.875 5.82421875 C33.94765767 10.91330802 34.99007336 15.08156149 34 21 C32.21025319 26.17037968 29.43920876 28.86644088 25 32 C20.25266305 33.99415753 15.89368236 34.27647923 10.8125 34.1875 C10.10158203 34.18685547 9.39066406 34.18621094 8.65820312 34.18554688 C5.51430692 34.15892875 3.00190612 34.00063537 0 33 C0 22.11 0 11.22 0 0 Z " fill="#FAFCFD" transform="translate(623,701)"/>
<path d="M0 0 C1.36560059 0.00303635 1.36560059 0.00303635 2.75878906 0.00613403 C3.68723633 0.00517731 4.61568359 0.00422058 5.57226562 0.00323486 C7.53938871 0.00255298 9.50651403 0.00440781 11.47363281 0.00857544 C14.49581932 0.01392358 17.51785721 0.00863071 20.54003906 0.00222778 C22.44628939 0.00288856 24.35253963 0.00416972 26.25878906 0.00613403 C27.16918945 0.0041098 28.07958984 0.00208557 29.01757812 0 C35.39383938 0.02399685 35.39383938 0.02399685 36.50878906 1.13894653 C36.63378906 4.13894653 36.63378906 4.13894653 36.50878906 7.13894653 C34.56014981 9.08758578 31.61070186 8.26813393 29.01757812 8.27789307 C28.10717773 8.27586884 27.19677734 8.2738446 26.25878906 8.27175903 C25.3303418 8.27271576 24.40189453 8.27367249 23.4453125 8.2746582 C21.47818942 8.27534008 19.5110641 8.27348525 17.54394531 8.26931763 C14.5217588 8.26396948 11.49972092 8.26926236 8.47753906 8.27566528 C6.57128873 8.2750045 4.6650385 8.27372334 2.75878906 8.27175903 C1.39318848 8.27479538 1.39318848 8.27479538 0 8.27789307 C-6.37626125 8.25389622 -6.37626125 8.25389622 -7.49121094 7.13894653 C-7.61621094 4.13894653 -7.61621094 4.13894653 -7.49121094 1.13894653 C-5.54257169 -0.80969271 -2.59312374 0.00975913 0 0 Z " fill="#E1A028" transform="translate(427.4912109375,452.8610534667969)"/>
<path d="M0 0 C2.31 0 4.62 0 7 0 C7 11.22 7 22.44 7 34 C4.69 34 2.38 34 0 34 C0 22.78 0 11.56 0 0 Z " fill="#FDFBF7" transform="translate(417,400)"/>
<path d="M0 0 C0.02312215 11.71726788 0.04091443 23.43453037 0.05181217 35.15181637 C0.05704128 40.59202312 0.06413943 46.03221431 0.07543945 51.47241211 C0.08626735 56.71785702 0.09227662 61.96328692 0.09487724 67.20874214 C0.09673167 69.21470946 0.10035262 71.22067592 0.10573006 73.22663689 C0.11293919 76.02602824 0.113991 78.82535679 0.11352539 81.62475586 C0.11712067 82.46272705 0.12071594 83.30069824 0.12442017 84.1640625 C0.11405216 89.88594784 0.11405216 89.88594784 -1 91 C-3.33297433 91.04092937 -5.66705225 91.04241723 -8 91 C-8 90.67 -8 90.34 -8 90 C-6.02 90 -4.04 90 -2 90 C-2 60.63 -2 31.26 -2 1 C-5.96 2.98 -5.96 2.98 -10 5 C-10.99 4.67 -11.98 4.34 -13 4 C-11.40233897 3.13372601 -9.79660056 2.28233535 -8.1875 1.4375 C-7.29417969 0.96183594 -6.40085937 0.48617188 -5.48046875 -0.00390625 C-3 -1 -3 -1 0 0 Z " fill="#DF970F" transform="translate(441,344)"/>
<path d="M0 0 C21.12 0 42.24 0 64 0 C64 4.95 64 9.9 64 15 C60.37 15 56.74 15 53 15 C53 14.67 53 14.34 53 14 C56.3 14 59.6 14 63 14 C63 10.04 63 6.08 63 2 C42.87 2 22.74 2 2 2 C2 7.61 2 13.22 2 19 C1.67 19 1.34 19 1 19 C0.67 12.73 0.34 6.46 0 0 Z " fill="#1C5E7B" transform="translate(686,688)"/>
<path d="M0 0 C12.87 0 25.74 0 39 0 C39 0.33 39 0.66 39 1 C26.79 1.33 14.58 1.66 2 2 C2 25.1 2 48.2 2 72 C1.67 72 1.34 72 1 72 C0.67 48.24 0.34 24.48 0 0 Z " fill="#4B8C9F" transform="translate(604,688)"/>
<path d="M0 0 C0.86560547 0.00902344 1.73121094 0.01804687 2.62304688 0.02734375 C4.72798779 0.05060277 6.83278342 0.08645992 8.9375 0.125 C5.59584402 2.35277065 2.13908945 3.8142376 -1.5625 5.3125 C-2.57763672 5.74079102 -2.57763672 5.74079102 -3.61328125 6.17773438 C-8.70855933 8.24298022 -8.70855933 8.24298022 -12.0625 7.125 C-10.0825 6.465 -8.1025 5.805 -6.0625 5.125 C-6.0625 4.465 -6.0625 3.805 -6.0625 3.125 C-10.3525 3.125 -14.6425 3.125 -19.0625 3.125 C-19.0625 2.795 -19.0625 2.465 -19.0625 2.125 C-12.54853871 0.45542768 -6.70767871 -0.13529841 0 0 Z " fill="#E29F2A" transform="translate(415.0625,287.875)"/>
<path d="M0 0 C3 0 3 0 5 1 C5.027193 2.58323688 5.04648306 4.16661062 5.0625 5.75 C5.07410156 6.63171875 5.08570313 7.5134375 5.09765625 8.421875 C5.00826198 10.7818838 4.66912821 12.74498524 4 15 C3.34 15 2.68 15 2 15 C1.66048381 13.43883181 1.32867456 11.87598662 1 10.3125 C0.814375 9.44238281 0.62875 8.57226562 0.4375 7.67578125 C0.01027953 5.06287036 -0.07616201 2.64186962 0 0 Z " fill="#E09615" transform="translate(550,173)"/>
<path d="M0 0 C6.27 0 12.54 0 19 0 C16.75 6.75 16.75 6.75 14 9 C14.66 7.02 15.32 5.04 16 3 C10.72 2.67 5.44 2.34 0 2 C0 1.34 0 0.68 0 0 Z " fill="#195E7B" transform="translate(352,688)"/>
<path d="M0 0 C6.93 0 13.86 0 21 0 C21 0.66 21 1.32 21 2 C14.4 2.33 7.8 2.66 1 3 C0.67 2.01 0.34 1.02 0 0 Z " fill="#306D86" transform="translate(278,688)"/>
<path d="M0 0 C6.06892629 -0.25287193 11.16200408 0.30167391 17 2 C17 2.33 17 2.66 17 3 C12.05 3.33 7.1 3.66 2 4 C1.34 2.68 0.68 1.36 0 0 Z " fill="#E0971A" transform="translate(790,298)"/>
<path d="M0 0 C0 0.66 0 1.32 0 2 C1.32 2.33 2.64 2.66 4 3 C2.5682384 3.69937202 1.12932968 4.38412718 -0.3125 5.0625 C-1.11300781 5.44535156 -1.91351563 5.82820313 -2.73828125 6.22265625 C-5 7 -5 7 -8 6 C-6.02 5.34 -4.04 4.68 -2 4 C-2 3.34 -2 2.68 -2 2 C-6.29 2 -10.58 2 -15 2 C-15 1.67 -15 1.34 -15 1 C-10.03926578 -0.32286246 -5.08888488 -0.08893197 0 0 Z " fill="#DF9310" transform="translate(411,289)"/>
<path d="M0 0 C0.66 0 1.32 0 2 0 C3.28571429 8.57142857 3.28571429 8.57142857 2 12 C1.34 12 0.68 12 0 12 C-0.84344627 7.97020115 -1.02675552 4.99293814 0 1 C0 0.67 0 0.34 0 0 Z " fill="#E09C24" transform="translate(552,176)"/>
<path d="M0 0 C0.66 0.66 1.32 1.32 2 2 C1.01 2.33 0.02 2.66 -1 3 C-2.20882096 5.00016466 -2.20882096 5.00016466 -3 7 C-3.66 7 -4.32 7 -5 7 C-5.66 8.32 -6.32 9.64 -7 11 C-7 7.22089522 -6.00296038 6.53893899 -3.5 3.8125 C-2.8503125 3.09707031 -2.200625 2.38164062 -1.53125 1.64453125 C-1.0259375 1.10183594 -0.520625 0.55914062 0 0 Z " fill="#DF9617" transform="translate(327,331)"/>
<path d="M0 0 C1.88457202 3.76914404 2.49881499 5.00948011 2 9 C1.01 10.32 0.02 11.64 -1 13 C-0.67 8.71 -0.34 4.42 0 0 Z " fill="#DE9515" transform="translate(705,521)"/>
<path d="M0 0 C0.6875 1.75 0.6875 1.75 1 4 C-0.3125 6.25 -0.3125 6.25 -2 8 C-2.66 8 -3.32 8 -4 8 C-2.87548273 5.0280615 -1.77706209 2.66559313 0 0 Z " fill="#085977" transform="translate(333,721)"/>
<path d="M0 0 C0 0.66 0 1.32 0 2 C-4.455 2.495 -4.455 2.495 -9 3 C-7.14340032 -0.71319936 -3.69365381 -0.09982848 0 0 Z " fill="#E09818" transform="translate(440,89)"/>
</svg>
